<svg width="1247" height="690" viewBox="0 0 1247 690" fill="none" xmlns="http://www.w3.org/2000/svg">
<path d="M557.781 178.291C543.5 178.291 531.416 173.265 521.529 163.213C512.192 153.162 507.523 140.876 507.523 126.357C507.523 111.838 512.192 99.5526 521.529 89.5009C531.416 79.4492 543.5 74.4234 557.781 74.4234C572.062 74.4234 583.871 79.4492 593.209 89.5009C603.096 99.5526 608.039 111.838 608.039 126.357C608.039 140.876 603.096 153.162 593.209 163.213C583.871 173.265 572.062 178.291 557.781 178.291ZM0 583.709C0 551.321 9.61218 525.075 28.8365 504.971C48.0609 484.309 76.0735 467.556 112.874 454.713L187.026 428.746V358.384C187.026 324.32 184.279 299.749 178.787 284.671C173.294 269.594 162.309 262.055 145.831 262.055C131 262.055 120.015 267.081 112.874 277.133C106.283 286.626 99.4174 301.703 92.2769 322.365C85.6857 343.027 78.8199 358.384 71.6794 368.436C64.5389 378.487 53.5536 383.513 38.7234 383.513C28.2873 383.513 20.0483 380.163 14.0063 373.461C7.96438 366.202 4.94341 356.709 4.94341 344.982C4.94341 325.995 11.26 308.684 23.8931 293.048C36.5263 277.412 53.2789 265.406 74.1511 257.029C95.5725 248.094 118.916 243.627 144.183 243.627C182.082 243.627 211.743 253.12 233.164 272.107C254.585 291.093 265.296 316.781 265.296 349.17V614.702C265.296 626.988 267.768 636.481 272.711 643.182C278.204 649.325 285.894 652.396 295.781 652.396C305.118 652.396 315.554 650.162 327.089 645.695L339.447 640.669V41.7554H280.126V14.1132H359.221C378.445 14.1132 391.628 9.6458 398.768 0.710938H417.718V648.208H511.643V284.671H459.737V257.029H531.416C550.641 257.029 563.823 252.562 570.964 243.627H589.913V648.208H647.586V675.85H304.843C286.168 679.201 271.887 680.876 262.001 680.876C220.805 680.876 196.638 664.123 189.497 630.617L179.61 639.831C165.329 652.675 151.323 662.727 137.591 669.987C124.409 677.246 110.128 680.876 94.7486 680.876C66.736 680.876 43.9414 671.941 26.3648 654.071C8.78828 636.202 0 612.748 0 583.709ZM76.6228 561.093C76.6228 581.755 82.1155 598.229 93.1008 610.514C104.086 622.241 119.191 628.104 138.415 628.104C153.795 628.104 168.625 622.241 182.906 610.514L187.026 607.163V454.713L138.415 473.978C97.2203 490.173 76.6228 519.211 76.6228 561.093Z" fill="#BE0380"/>
<path d="M819.395 270.432C802.368 270.432 787.263 278.529 774.081 294.723C760.898 310.918 750.737 332.417 743.596 359.222C737.005 385.468 733.71 413.11 733.71 442.148C733.71 498.549 743.597 542.944 763.37 575.333C783.693 607.163 811.706 623.079 847.408 623.079C877.618 623.079 901.236 610.235 918.263 584.547C935.84 558.301 944.628 522.562 944.628 477.329C944.628 431.538 951.22 391.052 964.402 355.871C978.134 320.69 997.633 293.327 1022.9 273.782C1048.17 253.679 1077.55 243.627 1111.06 243.627C1151.7 243.627 1184.38 257.308 1209.1 284.671C1234.37 312.034 1247 349.728 1247 397.753V427.908H1016.31V439.635C1016.31 489.894 1026.47 533.172 1046.79 569.47C1067.11 605.209 1096.78 623.079 1135.77 623.079C1151.7 623.079 1165.16 621.124 1176.14 617.215C1187.13 612.748 1198.12 605.209 1209.1 594.599L1224.75 580.359L1242.06 598.787L1223.11 623.079C1187.95 667.194 1147.58 689.252 1101.99 689.252C1065.74 689.252 1034.71 677.805 1008.89 654.909C983.077 632.013 964.951 600.462 954.515 560.255C945.178 598.787 928.15 630.059 903.433 654.071C879.266 677.525 850.704 689.252 817.748 689.252C766.666 689.252 726.569 670.545 697.458 633.13C668.896 595.716 654.615 544.62 654.615 479.842C654.615 434.051 662.03 393.286 676.86 357.546C692.24 321.248 713.112 293.327 739.477 273.782C766.391 253.679 796.875 243.627 830.93 243.627C863.886 243.627 890.251 251.445 910.025 267.081C930.347 282.717 940.509 303.379 940.509 329.066C940.509 344.702 936.939 357.267 929.798 366.76C922.658 375.695 913.32 380.163 901.785 380.163C888.054 380.163 878.167 375.137 872.125 365.085C866.083 355.033 860.59 340.514 855.647 321.528C850.704 303.658 846.035 290.814 841.641 282.996C837.247 274.62 829.831 270.432 819.395 270.432ZM1171.2 402.779V375.137C1171.2 341.073 1165.43 314.827 1153.9 296.398C1142.91 277.97 1126.99 268.756 1106.11 268.756C1081.95 268.756 1062.17 281.321 1046.79 306.45C1031.96 331.579 1022.35 363.689 1017.96 402.779H1171.2Z" fill="#BE0380"/>
</svg>
